<svg width="48" height="36" viewBox="0 0 48 36" fill="none" xmlns="http://www.w3.org/2000/svg">
<g clip-path="url(#clip0_2207_1040)">
<path d="M47.9815 4.15039L42.862 10.7497L44.817 16.407L47.9815 4.15039Z" fill="white"/>
<path d="M48 4.14258L40.9014 8.58014L35.417 6.11207L48 4.14258Z" fill="white"/>
<path d="M10.1122 32.7747C13.1455 34.8787 16.757 36.0047 20.4567 35.9999C30.4651 35.9999 38.5787 27.9416 38.5787 17.9994C38.5774 16.8956 38.4745 15.7942 38.2713 14.709C33.2472 21.4214 21.0569 35.6972 10.1122 32.7747Z" fill="white"/>
<path d="M37.5411 11.9926C36.2902 8.48522 33.9759 5.44892 30.9167 3.30136C27.8574 1.1538 24.2034 0.000470044 20.4573 0C10.4489 0 2.33619 8.05825 2.33619 17.9995C2.33484 19.3673 2.49019 20.7308 2.79924 22.0636C1.42675 22.2724 -0.00222778 20.8871 -0.00222778 20.8871C0.859116 22.4978 2.13064 23.856 3.6855 24.8261L3.70402 24.873C4.30674 25.2319 4.93762 25.542 5.59051 25.8002C6.43977 26.1457 7.32638 26.3927 8.23269 26.5361C14.4876 27.6124 23.8477 24.815 37.5411 11.9926Z" fill="white"/>
</g>
<defs>
<clipPath id="clip0_2207_1040">
<rect width="48" height="36" fill="white"/>
</clipPath>
</defs>
</svg>
